<?xml version="1.0" encoding="utf-8"?>
<svg version="1.1" id="Layer_1" xmlns="http://www.w3.org/2000/svg" xmlns:xlink="http://www.w3.org/1999/xlink" x="0px" y="0px"
	 viewBox="0 0 505.2 537.3" style="enable-background:new 0 0 505.2 537.3;" xml:space="preserve">
<path fill="#3d5588" d="M497.7,537.3H7.6c-4.2,0-7.6-3.4-7.6-7.6V419.5c0-4.2,3.4-7.6,7.6-7.6s7.6,3.4,7.6,7.6v102.7h475V419.5
	c0-4.2,3.4-7.6,7.6-7.6s7.6,3.4,7.6,7.6v110.3c0,2-0.8,3.9-2.2,5.4C501.6,536.5,499.7,537.3,497.7,537.3L497.7,537.3z"/>
<path fill="#3d5588" d="M252.6,451.5c-4.2,0-7.6-3.4-7.6-7.6V15.1c0-4.2,3.4-7.6,7.6-7.6s7.6,3.4,7.6,7.6V444c0,2-0.8,3.9-2.2,5.4
	C256.5,450.7,254.6,451.5,252.6,451.5z"/>
<path fill="#3d5588" d="M252.6,451.5c-2,0-3.9-0.8-5.4-2.2L142.7,344.7c-2.9-3-2.8-7.7,0.1-10.6c2.9-2.9,7.6-3,10.6-0.1l99.2,99.2l99.2-99.2
	c3-2.9,7.7-2.8,10.6,0.1c2.9,2.9,3,7.6,0.1,10.6L258,449.3C256.5,450.7,254.6,451.5,252.6,451.5L252.6,451.5z"/>
</svg>
